<?xml version="1.0" encoding="UTF-8"?><svg id="Layer_2" xmlns="http://www.w3.org/2000/svg" viewBox="0 0 228.56 228.56"><defs><style>.cls-1{fill:#87b0ff;}.cls-1,.cls-2,.cls-3,.cls-4{stroke-width:0px;}.cls-2{fill:#e6954f;}.cls-3{fill:#ffbf00;}.cls-4{fill:#333;}</style></defs><g id="Layer_1-2"><circle class="cls-1" cx="106.78" cy="114.28" r="106.53"/><circle class="cls-3" cx="114.28" cy="81.08" r="33.59"/><path class="cls-2" d="M25.47,165.7s36,75.13,126.88,45.25c28.69-9.43,53.38-43.83,53.38-43.83l-91.45-90.21L25.47,165.7Z"/><path class="cls-4" d="M114.28,0C51.27,0,0,51.26,0,114.28s51.27,114.28,114.28,114.28,114.28-51.27,114.28-114.28S177.3,0,114.28,0ZM114.28,15c54.75,0,99.28,44.53,99.28,99.28,0,14.75-3.23,28.76-9.03,41.35l-51.84-51.14c4.25-6.99,6.54-15.07,6.54-23.34,0-24.79-20.16-44.95-44.95-44.95s-44.95,20.16-44.95,44.95c0,8.16,2.14,15.97,6.25,22.86l-51.57,51.57c-5.78-12.58-9.01-26.57-9.01-41.3C15,59.53,59.54,15,114.28,15ZM118.93,71.19c-.16-.16-.33-.31-.51-.45-.19-.16-.38-.3-.58-.44-.15-.1-.31-.2-.48-.29-.05-.04-.11-.07-.16-.1-.21-.11-.41-.2-.63-.29-.15-.07-.31-.13-.47-.18-.31-.11-.63-.2-.95-.26-.24-.05-.48-.09-.73-.11-.25-.03-.5-.04-.76-.04h-.03s-.08,0-.12.01c-.21,0-.42,0-.63.03-.23.02-.46.06-.68.11-.12.02-.23.04-.34.08-.15.02-.29.06-.43.11-.68.21-1.33.52-1.91.91-.2.13-.4.28-.59.43-.2.16-.39.34-.57.52l-21.65,21.65c-1.57-3.67-2.38-7.63-2.38-11.73,0-16.52,13.44-29.95,29.95-29.95s29.95,13.43,29.95,29.95c0,4.29-.92,8.51-2.67,12.36l-22.63-22.32ZM31.61,169.19l74.63-74.63.54,118.72c-31.34-2.35-58.67-19.32-75.17-44.09ZM121.78,213.28l-.54-118.74,16.1,15.88c.16.17.32.33.5.5l59.1,58.29c-16.5,24.76-43.83,41.72-75.16,44.07Z"/></g></svg>