<?xml version="1.0" encoding="UTF-8"?><svg id="Layer_2" xmlns="http://www.w3.org/2000/svg" viewBox="0 0 658.14 223.42"><defs><style>.cls-1{fill:#be2733;}.cls-1,.cls-2{stroke-width:0px;}.cls-2{fill:#333;}</style></defs><g id="Layer_1-2"><path class="cls-2" d="M249.79,15.53h-15.25c-1.96,0-3.08,1.12-3.08,3.08v6.02h-16.09v-15.67c0-6.57,2.24-8.95,8.95-8.95h69.26c6.71,0,8.95,2.38,8.95,8.95v15.67h-16.09v-6.02c0-1.96-1.12-3.08-3.08-3.08h-15.25v83.8h-18.33V15.53Z"/><path class="cls-2" d="M309.94,83.8h9.93V15.53h-9.93V0h37.21v15.53h-9.93v68.28h9.93v15.53h-37.21v-15.53Z"/><path class="cls-2" d="M533.5,83.8h9.93V15.53h-9.93V0h37.21v15.53h-9.93v68.28h9.93v15.53h-37.21v-15.53Z"/><path class="cls-2" d="M366.32,15.53h-9.09V0h45.47c18.61,0,31.62,13.01,31.62,32.32s-13.01,32.74-31.62,32.74h-18.05v34.28h-18.33V15.53ZM399.33,49.39c10.35,0,16.23-6.71,16.23-17.07s-5.87-16.79-15.95-16.79h-14.97v33.86h14.69Z"/><path class="cls-2" d="M473.62,15.53h-15.25c-1.96,0-3.08,1.12-3.08,3.08v6.02h-16.09v-15.67c0-6.57,2.24-8.95,8.95-8.95h69.26c6.71,0,8.95,2.38,8.95,8.95v15.67h-16.09v-6.02c0-1.96-1.12-3.08-3.08-3.08h-15.25v83.8h-18.33V15.53Z"/><path class="cls-2" d="M590.15,15.53h-9.09V0h45.47c18.61,0,31.62,13.01,31.62,32.32s-13.01,32.74-31.62,32.74h-18.05v34.28h-18.33V15.53ZM623.16,49.39c10.35,0,16.23-6.71,16.23-17.07s-5.87-16.79-15.95-16.79h-14.97v33.86h14.69Z"/><path class="cls-2" d="M307.57,120.73c29.24,0,51.34,22.25,51.34,50.65s-22.1,52.04-51.34,52.04-51.34-22.81-51.34-52.04,22.1-50.65,51.34-50.65ZM307.57,206.35c17.91,0,32.32-15.11,32.32-34.98s-14.41-33.58-32.32-33.58-32.32,14.55-32.32,33.58,14.41,34.98,32.32,34.98Z"/><path class="cls-2" d="M367.86,206.21h6.02c1.96,0,3.08-1.12,3.08-3.08v-80.73h16.51l37.63,54.98c3.92,5.74,8.25,13.99,8.25,13.99h.28s-.98-8.25-.98-13.99v-45.47c0-6.58,2.8-9.51,9.51-9.51h17.91v15.53h-6.02c-1.96,0-3.08,1.12-3.08,3.08v80.73h-16.37l-37.78-54.84c-3.92-5.6-8.25-13.99-8.25-13.99h-.28s.98,8.25.98,13.99v45.33c0,6.72-2.8,9.51-9.51,9.51h-17.91v-15.53Z"/><path class="cls-2" d="M483.55,141.02c0-1.96-1.12-3.08-3.08-3.08h-6.02v-15.53h17.91c6.72,0,9.51,2.94,9.51,9.51v53.86c0,13.01,8.25,20.57,20.71,20.57s20.71-7.56,20.71-20.71v-53.72c0-6.58,2.8-9.51,9.51-9.51h17.91v15.53h-6.02c-1.96,0-3.08,1.12-3.08,3.08v45.33c0,21.97-15.53,37.08-38.89,37.08s-39.17-15.11-39.17-37.08v-45.33Z"/><path class="cls-2" d="M579.65,206.21h9.93v-68.28h-9.93v-15.53h37.22v15.53h-9.94v68.28h9.94v15.53h-37.22v-15.53Z"/><path class="cls-1" d="M111.45,0C50,0,0,49.99,0,111.45s50,111.44,111.45,111.44,111.45-49.99,111.45-111.44S172.9,0,111.45,0ZM147.23,98.32h55.51c.61,4.29.93,8.67.93,13.13,0,3.19-.16,6.34-.48,9.44h-80.33l24.37-22.57ZM111.45,19.23c40.77,0,75.45,26.6,87.59,63.35h-54.9c-1.98,0-3.89.75-5.34,2.09l-10.09,9.35-34.09-42.81c-1.5-1.88-3.76-2.97-6.16-2.97h-44.1c16.83-17.85,40.68-29.01,67.09-29.01ZM32.41,63.98h44.8l-19.19,19.19H23.67c2.18-6.77,5.13-13.2,8.74-19.19ZM19.23,111.45c0-4.26.29-8.45.85-12.55h41.2c2.09,0,4.09-.82,5.56-2.3l24.39-24.38,25.9,32.53-11.03,10.21c-1.61,1.49-2.52,3.58-2.52,5.77v82.59c-47.18-4-84.35-43.68-84.35-91.87ZM119.32,203.32v-66.69h80.86c-10.3,36.21-42.22,63.42-80.86,66.69Z"/></g></svg>